<svg xmlns="http://www.w3.org/2000/svg" viewBox="0 0 357.33 90">
  <g id="bg" fill="transparent" stroke="black" stroke-linecap="round" stroke-miterlimit="10">
    <line x1="191.54" y1="6.87" x2="226.54" y2="6.87" />
    <line x1="191.54" y1="83.37" x2="226.54" y2="83.37" />
    <line x1="191.54" y1="45.12" x2="226.54" y2="45.12" />
    <line x1="234.29" y1="6.87" x2="234.29" y2="83.37" />
    <line x1="292.32" y1="6.87" x2="313.11" y2="45.12" />
    <line x1="333.84" y1="6.87" x2="313.05" y2="45.12" />
    <line x1="191.54" y1="6.87" x2="191.54" y2="83.37" />
    <line x1="291.92" y1="6.87" x2="276.04" y2="83.37" />
    <line x1="333.72" y1="6.87" x2="349.6" y2="83.37" />
    <line x1="234.29" y1="6.87" x2="269.29" y2="6.87" />
    <line x1="234.29" y1="83.37" x2="269.29" y2="83.37" />
    <line x1="234.29" y1="45.12" x2="269.29" y2="45.12" />
  </g>
  <g id="animation">
    <g id="leftLogo">
      <!--line id="rightLine" x1="191.54" y1="6.87" x2="191.54" y2="83.37"  style="fill: none;stroke: #231f20;stroke-linecap: round;stroke-miterlimit: 10"/-->
      <circle id="rightLevel" cx="191.54" cy="6.87" r="2.75" style="fill: #231f20">
        <animate attributeName="cy" dur="12s" repeatCount="indefinite"
        values="6.87 ; 83.37 ; 6.87" keyTimes="0 ;  0.5 ; 1"/>
      </circle>
    </g>
    <g id="middelLogo">
      <!--line id="bottomLine" x1="234.29" y1="83.37" x2="269.29" y2="83.37" style="fill: none;stroke: #231f20;stroke-linecap: round;stroke-miterlimit: 10"/-->
      <circle id="bottomLevel" cx="240.6" cy="83.37" r="2.75" style="fill: #231f20">
        <animate attributeName="cx" dur="10s" repeatCount="indefinite"
        values="234.29 ; 269.29 ; 234.29" keyTimes="0 ;  0.5 ; 1"/>
      </circle>
      <!--line id="middelLine" x1="234.29" y1="45.12" x2="269.29" y2="45.12" style="fill: none;stroke: #231f20;stroke-linecap: round;stroke-miterlimit: 10"/-->
      <circle id="middelLevel" cx="255.63" cy="45.12" r="2.75" style="fill: #231f20">
      <animate attributeName="cx" dur="3s" repeatCount="indefinite"
        values="234.29 ; 269.29 ; 234.29" keyTimes="0 ;  0.5 ; 1"/>
      </circle>
      <!--line id="topLine" x1="234.29" y1="6.87" x2="269.29" y2="6.87" style="fill: none;stroke: #231f20;stroke-linecap: round;stroke-miterlimit: 10"/-->
      <circle id="topLevel" cx="242.43" cy="6.87" r="2.75" style="fill: #231f20">
      <animate attributeName="cx" dur="7s" repeatCount="indefinite"
        values="234.29 ; 269.29 ; 234.29" keyTimes="0 ;  0.5 ; 1"/>
      </circle>
    </g>
    <g id="rightLogo">
      <!--line id="right-leftLine" x1="291.92" y1="6.87" x2="276.04" y2="83.37" style="fill: none;stroke: #231f20;stroke-linecap: round;stroke-miterlimit: 10"/-->
      <circle id="right-leftLevel" cx="277.47" cy="76.48" r="2.75" style="fill: #231f20">
      <animate attributeName="cx" dur="10s" repeatCount="indefinite"
        values="291.92 ; 276.04 ; 291.92" keyTimes="0 ;  0.5 ; 1"/>
        <animate attributeName="cy" dur="10s" repeatCount="indefinite"
        values="6.87 ; 83.37 ; 6.87" keyTimes="0 ;  0.5 ; 1"/>
      </circle>

      <!--line id="right-rightLine" x1="333.72" y1="6.87" x2="349.6" y2="83.37" style="fill: none;stroke: #231f20;stroke-linecap: round;stroke-miterlimit: 10"/-->
      <circle id="right-rightLevel" cx="338.32" cy="29.01" r="2.75" style="fill: #231f20">
      <animate attributeName="cx" dur="8s" repeatCount="indefinite" values=" 349.6 ; 333.72 ; 349.6 " keyTimes="0 ;  0.5 ; 1"/>
        <animate attributeName="cy" dur="8s" repeatCount="indefinite"  values=" 83.37 ; 6.87 ; 83.37" keyTimes="0 ;  0.5 ; 1"/>
      </circle>
    </g>
  </g>
  <g id="text">
    <g>
      <path d="M48,22.5V6.58q0-.42.36-.42H58.79c.3,0,.44.12.44.37h0c0,.25-.14.37-.44.37h-10v6.82h8.14c.29,0,.44.12.44.37h0c0,.25-.15.37-.44.37H48.78v7.71H59.16c.3,0,.44.12.44.37h0c0,.25-.14.37-.44.37H48.39C48.15,22.94,48,22.79,48,22.5Z" style="fill: #231f20"/>
      <path d="M68.61,22.89a.32.32,0,0,1-.17.06h0a.32.32,0,0,1-.18-.06.45.45,0,0,1-.16-.21l-6.85-16a.79.79,0,0,1,0-.17.29.29,0,0,1,.13-.25.5.5,0,0,1,.27-.1.36.36,0,0,1,.33.25l6.53,15.31,6.46-15.3a.33.33,0,0,1,.32-.24.48.48,0,0,1,.27.09.3.3,0,0,1,.13.26.35.35,0,0,1,0,.17l-6.77,16A.48.48,0,0,1,68.61,22.89Z" style="fill: #231f20"/>
      <path d="M77.4,10.28a8.57,8.57,0,0,1,3.1-3.14A8.26,8.26,0,0,1,84.78,6a8.61,8.61,0,0,1,4.38,1.17,8.86,8.86,0,0,1,3.21,3.14,8.2,8.2,0,0,1,1.19,4.31,8.39,8.39,0,0,1-1.19,4.34,9,9,0,0,1-3.21,3.18,8.42,8.42,0,0,1-4.35,1.19,8.15,8.15,0,0,1-4.28-1.19,8.75,8.75,0,0,1-4.27-7.52A8.51,8.51,0,0,1,77.4,10.28Zm.66,8.28a7.85,7.85,0,0,0,2.84,2.91,7.35,7.35,0,0,0,3.91,1.09,7.73,7.73,0,0,0,4-1.09,8,8,0,0,0,2.89-2.9,7.83,7.83,0,0,0,1-4,7.56,7.56,0,0,0-1.08-3.94A8.11,8.11,0,0,0,88.79,7.8a7.87,7.87,0,0,0-4-1.07,7.56,7.56,0,0,0-3.9,1.06,7.69,7.69,0,0,0-2.83,2.86,8,8,0,0,0,0,7.91Z" style="fill: #231f20"/>
      <path d="M96.8,22.5V6.58c0-.28.12-.42.37-.42h0c.25,0,.37.14.37.42V22.19h11.1c.29,0,.44.12.44.37h0c0,.25-.15.37-.44.37H97.17C96.92,22.94,96.8,22.79,96.8,22.5Z" style="fill: #231f20"/>
      <path d="M112.21,19.92a5.22,5.22,0,0,0,2.22,1.92,6.37,6.37,0,0,0,2.66.59h.26a6.25,6.25,0,0,0,2.64-.59,5.1,5.1,0,0,0,2.19-1.93,6.15,6.15,0,0,0,.88-3.46V6.61a.5.5,0,0,1,.1-.33.34.34,0,0,1,.28-.12h0a.27.27,0,0,1,.27.16.65.65,0,0,1,.07.29v10A6.84,6.84,0,0,1,123,20a6,6,0,0,1-2.26,2.37,6.54,6.54,0,0,1-3.4.87h-.26a7.38,7.38,0,0,1-3.14-.7,5.77,5.77,0,0,1-2.44-2.19,6.85,6.85,0,0,1-1-3.72V6.64q0-.48.36-.48H111c.15,0,.25,0,.28.14a.9.9,0,0,1,.06.34v9.83A6.13,6.13,0,0,0,112.21,19.92Z" style="fill: #231f20"/>
      <path d="M139.55,6.5c0,.24-.15.36-.44.36h-5.89V22.45c0,.33-.12.49-.35.49s-.4-.16-.4-.49V6.86h-5.93a.48.48,0,0,1-.34-.1.3.3,0,0,1-.11-.23h0q0-.36.45-.36h12.54C139.39,6.16,139.55,6.27,139.55,6.5Z" style="fill: #231f20"/>
      <path d="M142.38,6.16h0c.25,0,.37.14.37.42V22.5c0,.29-.12.44-.37.44h0c-.25,0-.37-.15-.37-.44V6.58C142,6.3,142.13,6.16,142.38,6.16Z" style="fill: #231f20"/>
      <path d="M147.29,10.28a8.49,8.49,0,0,1,3.1-3.14A8.26,8.26,0,0,1,154.67,6,8.54,8.54,0,0,1,159,7.15a8.71,8.71,0,0,1,3.21,3.14,8.11,8.11,0,0,1,1.19,4.31,8.29,8.29,0,0,1-1.19,4.34,8.87,8.87,0,0,1-3.2,3.18,8.42,8.42,0,0,1-4.35,1.19,8.21,8.21,0,0,1-4.29-1.19,8.75,8.75,0,0,1-4.27-7.52A8.42,8.42,0,0,1,147.29,10.28Zm.65,8.28a8,8,0,0,0,2.84,2.91,7.38,7.38,0,0,0,3.92,1.09,7.73,7.73,0,0,0,4.05-1.09,8,8,0,0,0,2.89-2.9,7.83,7.83,0,0,0,1.05-4,7.48,7.48,0,0,0-1.09-3.94,8,8,0,0,0-2.93-2.86,7.83,7.83,0,0,0-4-1.07,7.73,7.73,0,0,0-6.73,3.92,7.7,7.7,0,0,0-1,3.95A7.92,7.92,0,0,0,147.94,18.56Z" style="fill: #231f20"/>
      <path d="M167.48,22.5c0,.28-.12.42-.37.44h-.06a.3.3,0,0,1-.25-.11.58.58,0,0,1-.07-.33V6.58c0-.27.14-.41.37-.42h0a.31.31,0,0,1,.27.1l12.1,15.24V6.58c0-.27.14-.41.37-.42h0q.39,0,.39.42l0,15.92c0,.26-.09.4-.28.44h-.13q-.13,0-.3-.21l-12-15.15Z" style="fill: #231f20"/>
      <path d="M150.37,30.26a8.49,8.49,0,0,1,3.1-3.14A8.25,8.25,0,0,1,157.75,26a8.53,8.53,0,0,1,4.37,1.16,8.79,8.79,0,0,1,3.21,3.14,8.17,8.17,0,0,1,1.19,4.32,8.28,8.28,0,0,1-1.19,4.33,8.9,8.9,0,0,1-3.2,3.19,8.41,8.41,0,0,1-4.35,1.18,8.2,8.2,0,0,1-4.29-1.18,8.76,8.76,0,0,1-3.12-3.19,8.63,8.63,0,0,1-1.15-4.33A8.48,8.48,0,0,1,150.37,30.26Zm.65,8.28a8,8,0,0,0,2.84,2.92,7.46,7.46,0,0,0,3.92,1.08,7.82,7.82,0,0,0,4.05-1.08,8,8,0,0,0,2.89-2.91,7.82,7.82,0,0,0,1.05-4,7.45,7.45,0,0,0-1.09-3.94,8,8,0,0,0-2.93-2.87,7.82,7.82,0,0,0-4-1.06,7.59,7.59,0,0,0-3.91,1.05A7.86,7.86,0,0,0,150,34.59,7.91,7.91,0,0,0,151,38.54Z" style="fill: #231f20"/>
      <path d="M170.53,42.49c0,.29-.12.43-.37.43h0c-.25,0-.37-.14-.37-.43V26.57c0-.28.12-.43.37-.43H181.1c.29,0,.44.13.44.37v0c0,.24-.15.37-.44.37H170.53v6.81h8.69c.29,0,.44.13.44.37v0c0,.24-.15.37-.44.37h-8.69Z" style="fill: #231f20"/>
      <path d="M5.32,62.47V46.55q0-.42.36-.42H16.09c.3,0,.44.12.44.37h0c0,.25-.14.37-.44.37h-10V53.7h8.14c.29,0,.44.12.44.37h0c0,.25-.15.37-.44.37H6.08v7.71H16.46c.3,0,.44.12.44.37h0c0,.25-.14.37-.44.37H5.69C5.45,62.91,5.32,62.76,5.32,62.47Z" style="fill: #231f20"/>
      <path d="M19.67,62.47V46.55c0-.28.12-.42.37-.42h0c.25,0,.37.14.37.42V62.16h11.1c.29,0,.44.12.44.37h0c0,.25-.15.37-.44.37H20C19.79,62.91,19.67,62.76,19.67,62.47Z" style="fill: #231f20"/>
      <path d="M34.73,62.47V46.55c0-.28.12-.42.35-.42H45.5c.29,0,.44.12.44.37h0c0,.25-.15.37-.44.37h-10V53.7h8.15c.29,0,.43.12.43.37h0c0,.25-.14.37-.43.37H35.48v7.71H45.87c.29,0,.44.12.44.37h0c0,.25-.15.37-.44.37H35.1C34.85,62.91,34.73,62.76,34.73,62.47Z" style="fill: #231f20"/>
      <path d="M61.76,60.39a.3.3,0,0,1,.24.11.38.38,0,0,1,.09.25.42.42,0,0,1-.18.34,8.91,8.91,0,0,1-5.76,2.19,8.47,8.47,0,0,1-4.36-1.18,8.81,8.81,0,0,1-3.19-3.17,8.38,8.38,0,0,1-1.19-4.33,8.25,8.25,0,0,1,1.22-4.39,8.89,8.89,0,0,1,3.21-3.12A8.42,8.42,0,0,1,56,46a8.82,8.82,0,0,1,3,.58,8.11,8.11,0,0,1,2.72,1.61.38.38,0,0,1,.16.31.4.4,0,0,1-.09.27.34.34,0,0,1-.28.11.39.39,0,0,1-.26-.12,7.32,7.32,0,0,0-2.45-1.51,7.83,7.83,0,0,0-6.62.52,8.09,8.09,0,0,0-3,2.84,7.43,7.43,0,0,0-1.12,4,7.66,7.66,0,0,0,1.08,4,8.06,8.06,0,0,0,2.91,2.89,7.72,7.72,0,0,0,4,1.08A7.5,7.5,0,0,0,59.08,62a8.8,8.8,0,0,0,2.36-1.48A.51.51,0,0,1,61.76,60.39Z" style="fill: #231f20"/>
      <path d="M77,46.47c0,.24-.15.36-.44.36H70.62V62.42c0,.32-.12.49-.35.49s-.4-.17-.4-.49V46.83H63.94a.49.49,0,0,1-.34-.1.3.3,0,0,1-.11-.23h0q0-.36.45-.36H76.48C76.79,46.13,77,46.24,77,46.47Z" style="fill: #231f20"/>
      <path d="M90.8,62.57a.3.3,0,0,1-.11.24.32.32,0,0,1-.25.1h0q-.19,0-.33-.27l-2.92-6a6.55,6.55,0,0,1-1.47.18H80.2v5.61a.45.45,0,0,1-.11.33.4.4,0,0,1-.26.11h0q-.36,0-.36-.45V46.84a.87.87,0,0,1,.14-.54.62.62,0,0,1,.49-.17h5.74a5,5,0,0,1,2.7.75,5.18,5.18,0,0,1,1.89,2,5.24,5.24,0,0,1,.68,2.58,5.56,5.56,0,0,1-.41,2.09,5.4,5.4,0,0,1-1.13,1.78,4.89,4.89,0,0,1-1.68,1.15l2.88,5.93A.58.58,0,0,1,90.8,62.57ZM89.74,49.18a4.88,4.88,0,0,0-1.67-1.68,4.31,4.31,0,0,0-2.26-.63H80.2v9.25h5.64a4.19,4.19,0,0,0,2.23-.62,4.59,4.59,0,0,0,1.67-1.69,4.65,4.65,0,0,0,.62-2.36A4.43,4.43,0,0,0,89.74,49.18Z" style="fill: #231f20"/>
      <path d="M94.6,50.25a8.64,8.64,0,0,1,3.1-3.14A8.32,8.32,0,0,1,102,46a8.57,8.57,0,0,1,4.37,1.17,8.71,8.71,0,0,1,3.21,3.14,8.2,8.2,0,0,1,1.19,4.31,8.39,8.39,0,0,1-1.19,4.34,8.87,8.87,0,0,1-3.2,3.18A8.42,8.42,0,0,1,102,63.28a8.18,8.18,0,0,1-4.29-1.19,8.73,8.73,0,0,1-3.12-3.18,8.76,8.76,0,0,1,0-8.66Zm.66,8.28a8,8,0,0,0,2.84,2.91A7.38,7.38,0,0,0,102,62.53a7.79,7.79,0,0,0,4-1.09,7.93,7.93,0,0,0,2.88-2.9,7.74,7.74,0,0,0,1.06-4,7.48,7.48,0,0,0-1.09-3.94A8.14,8.14,0,0,0,106,47.76a8,8,0,0,0-4-1.06,7.57,7.57,0,0,0-3.91,1.06,7.95,7.95,0,0,0-2.82,10.77Z" style="fill: #231f20"/>
      <path d="M114.8,62.47a.38.38,0,0,1-.37.44h-.06a.28.28,0,0,1-.25-.11.57.57,0,0,1-.08-.33V46.55c0-.27.15-.41.37-.42h0a.32.32,0,0,1,.27.1l12.1,15.24V46.55c0-.27.14-.41.37-.42h0q.39,0,.39.42l0,15.92c0,.26-.09.4-.29.44h-.12q-.14,0-.3-.21l-12-15.15Z" style="fill: #231f20"/>
      <path d="M132.12,46.13h0c.25,0,.37.14.37.42V62.47c0,.29-.12.44-.37.44h0c-.25,0-.37-.15-.37-.44V46.55C131.75,46.27,131.87,46.13,132.12,46.13Z" style="fill: #231f20"/>
      <path d="M150.18,60.39a.3.3,0,0,1,.24.11.38.38,0,0,1,.08.25.41.41,0,0,1-.17.34,8.92,8.92,0,0,1-5.77,2.19,8.41,8.41,0,0,1-4.35-1.18A8.81,8.81,0,0,1,137,58.93a8.38,8.38,0,0,1-1.19-4.33,8.25,8.25,0,0,1,1.22-4.39,8.89,8.89,0,0,1,3.21-3.12,8.42,8.42,0,0,1,4.2-1.12,8.72,8.72,0,0,1,3,.58,8.06,8.06,0,0,1,2.73,1.61.38.38,0,0,1,.16.31.4.4,0,0,1-.09.27.34.34,0,0,1-.28.11.37.37,0,0,1-.26-.12,7.32,7.32,0,0,0-2.45-1.51,7.83,7.83,0,0,0-6.62.52,8.09,8.09,0,0,0-3,2.84,7.43,7.43,0,0,0-1.12,4,7.66,7.66,0,0,0,1.08,4,8.06,8.06,0,0,0,2.91,2.89,7.69,7.69,0,0,0,4,1.08,7.45,7.45,0,0,0,2.94-.54,8.7,8.7,0,0,0,2.37-1.48A.51.51,0,0,1,150.18,60.39Z" style="fill: #231f20"/>
      <path d="M159,46.21a.48.48,0,0,1,.22-.08h.08a.33.33,0,0,1,.19.08.69.69,0,0,1,.13.21l6.5,16a.33.33,0,0,1-.3.49h0a.32.32,0,0,1-.23-.07.68.68,0,0,1-.15-.25l-1.76-4.24h-8.82l-1.76,4.24a.68.68,0,0,1-.15.25.32.32,0,0,1-.23.07h0a.32.32,0,0,1-.24-.09.36.36,0,0,1-.08-.24.34.34,0,0,1,0-.16l6.5-16A.7.7,0,0,1,159,46.21Zm4.34,11.39-4.11-10.16L155.16,57.6Z" style="fill: #231f20"/>
      <path d="M168.71,62.47V46.55c0-.28.12-.42.37-.42h0c.25,0,.37.14.37.42V62.16h11.1c.29,0,.44.12.44.37h0c0,.25-.15.37-.44.37H169.08C168.83,62.91,168.71,62.76,168.71,62.47Z" style="fill: #231f20"/>
      <path d="M111.16,82.48c0,.28-.16.41-.4.41h0c-.22,0-.33-.12-.33-.38v-.08l1.26-15.92a.62.62,0,0,1,.09-.27.27.27,0,0,1,.23-.12h.13a.41.41,0,0,1,.33.25l6.94,15.29,6.93-15.29a.48.48,0,0,1,.16-.2.36.36,0,0,1,.21,0h.07a.29.29,0,0,1,.24.12.45.45,0,0,1,.1.27l1.26,15.92v.08c0,.26-.11.38-.33.38h0c-.24,0-.38-.13-.4-.41l-1.16-14.59-6.69,14.7c-.09.2-.21.3-.34.3h-.07q-.24,0-.36-.3l-6.69-14.7Z" style="fill: #231f20"/>
      <path d="M133.29,79.88a5.22,5.22,0,0,0,2.22,1.92,6.53,6.53,0,0,0,2.66.59h.26a6.36,6.36,0,0,0,2.63-.59,5.06,5.06,0,0,0,2.19-1.93,6.17,6.17,0,0,0,.89-3.46V66.57a.54.54,0,0,1,.09-.33.36.36,0,0,1,.29-.12h0a.25.25,0,0,1,.26.15.61.61,0,0,1,.08.3v10a6.94,6.94,0,0,1-.8,3.3,6,6,0,0,1-2.27,2.37,6.48,6.48,0,0,1-3.39.87h-.26a7.31,7.31,0,0,1-3.15-.7,5.67,5.67,0,0,1-2.43-2.19,6.8,6.8,0,0,1-1-3.72V66.59c0-.32.12-.47.36-.47h.05c.16,0,.25,0,.29.14a.84.84,0,0,1,.06.33v9.83A6.07,6.07,0,0,0,133.29,79.88Z" style="fill: #231f20"/>
      <path d="M150.27,82.68A4.63,4.63,0,0,1,148.41,81a3.78,3.78,0,0,1-.62-2,.39.39,0,0,1,.22-.41h0l.14,0a.32.32,0,0,1,.27.15.65.65,0,0,1,.12.37,3.29,3.29,0,0,0,.7,1.86,4.06,4.06,0,0,0,1.67,1.2,6.46,6.46,0,0,0,2.34.41,6.82,6.82,0,0,0,2.12-.35,4.07,4.07,0,0,0,1.82-1.2,3.27,3.27,0,0,0,.74-2.25,3.13,3.13,0,0,0-1.28-2.71,9.55,9.55,0,0,0-3.44-1.47,14.16,14.16,0,0,1-2.65-.88,4.55,4.55,0,0,1-1.73-1.36,3.48,3.48,0,0,1-.64-2.16,4.14,4.14,0,0,1,.57-2.12,4,4,0,0,1,1.69-1.55,5.86,5.86,0,0,1,2.71-.58A5.54,5.54,0,0,1,157.49,68a3.85,3.85,0,0,1,.84,2v.11c0,.18-.05.29-.14.33a.27.27,0,0,1-.16,0,.44.44,0,0,1-.25-.08.36.36,0,0,1-.15-.25,3.47,3.47,0,0,0-.78-1.79,4.5,4.5,0,0,0-1.63-1.26,4.82,4.82,0,0,0-2-.45,5.24,5.24,0,0,0-2.18.44,3.61,3.61,0,0,0-1.5,1.24,3.17,3.17,0,0,0-.54,1.82,2.73,2.73,0,0,0,1.28,2.45,9.18,9.18,0,0,0,3.06,1.18c3.6.79,5.41,2.45,5.41,5a4,4,0,0,1-.84,2.6,4.83,4.83,0,0,1-2.08,1.48,7.16,7.16,0,0,1-2.52.47A6.64,6.64,0,0,1,150.27,82.68Z" style="fill: #231f20"/>
      <path d="M162.5,66.12h0c.24,0,.37.14.37.42V82.46c0,.29-.13.43-.37.43h0c-.24,0-.37-.14-.37-.43V66.54C162.13,66.26,162.26,66.12,162.5,66.12Z" style="fill: #231f20"/>
      <path d="M180.56,80.38a.28.28,0,0,1,.24.11.36.36,0,0,1,.09.24.41.41,0,0,1-.18.34A8.91,8.91,0,0,1,175,83.26a8.5,8.5,0,0,1-4.35-1.17,9,9,0,0,1-3.2-3.18,8.52,8.52,0,0,1,0-8.72,8.78,8.78,0,0,1,3.21-3.11A8.4,8.4,0,0,1,174.84,66a8.77,8.77,0,0,1,3,.58,8.24,8.24,0,0,1,2.72,1.61.41.41,0,0,1,.17.32.38.38,0,0,1-.1.27.34.34,0,0,1-.27.11.37.37,0,0,1-.26-.12,7.27,7.27,0,0,0-2.46-1.51A7.66,7.66,0,0,0,175,66.7a8.17,8.17,0,0,0-6.9,3.86,7.79,7.79,0,0,0,0,8,8.12,8.12,0,0,0,2.92,2.9,7.75,7.75,0,0,0,4,1.07,7.67,7.67,0,0,0,2.94-.53,9,9,0,0,0,2.37-1.48A.48.48,0,0,1,180.56,80.38Z" style="fill: #231f20"/>
    </g>
  </g>
</svg>
