<svg class="clip-svg" xmlns="http://www.w3.org/2000/svg" xmlns:xlink="http://www.w3.org/1999/xlink" viewBox="0 0 720 720">

  <image width="720" height="720" href="../assets/masking_img_opti.jpg" mask="url(#masking)" />

  <mask id="masking">
  <g fill="white">
      <rect class="mscBox_01" x="000" y="0" width="80" height="80"/>
      <rect class="mscBox_02" x="090" y="0" width="80" height="80"/>
      <rect class="mscBox_03" x="180" y="0" width="80" height="80"/>
      <rect class="mscBox_04" x="270" y="0" width="80" height="80"/>
      <rect class="mscBox_05" x="360" y="0" width="80" height="80"/>
      <rect class="mscBox_06" x="450" y="0" width="80" height="80"/>
      <rect class="mscBox_07" x="540" y="0" width="80" height="80"/>
      <rect class="mscBox_08" x="630" y="0" width="80" height="80"/>
      <rect class="mscBox_09" x="000" y="090" width="80" height="80"/>
      <rect class="mscBox_10" x="090" y="090" width="80" height="80"/>
      <rect class="mscBox_11" x="180" y="090" width="80" height="80"/>
      <rect class="mscBox_12" x="270" y="090" width="80" height="80"/>
      <rect class="mscBox_13" x="360" y="090" width="80" height="80"/>
      <rect class="mscBox_14" x="450" y="090" width="80" height="80"/>
      <rect class="mscBox_15" x="540" y="090" width="80" height="80"/>
      <rect class="mscBox_16" x="630" y="090" width="80" height="80"/>
      <rect class="mscBox_17" x="000" y="180" width="80" height="80"/>
      <rect class="mscBox_18" x="090" y="180" width="80" height="80"/>
      <rect class="mscBox_19" x="180" y="180" width="80" height="80"/>
      <rect class="mscBox_20" x="270" y="180" width="80" height="80"/>
      <rect class="mscBox_21" x="360" y="180" width="80" height="80"/>
      <rect class="mscBox_22" x="450" y="180" width="80" height="80"/>
      <rect class="mscBox_23" x="540" y="180" width="80" height="80"/>
      <rect class="mscBox_24" x="630" y="180" width="80" height="80"/>
      <rect class="mscBox_25" x="000" y="270" width="80" height="80"/>
      <rect class="mscBox_26" x="090" y="270" width="80" height="80"/>
      <rect class="mscBox_27" x="180" y="270" width="80" height="80"/>
      <rect class="mscBox_28" x="270" y="270" width="80" height="80"/>
      <rect class="mscBox_29" x="360" y="270" width="80" height="80"/>
      <rect class="mscBox_30" x="450" y="270" width="80" height="80"/>
      <rect class="mscBox_31" x="540" y="270" width="80" height="80"/>
      <rect class="mscBox_32" x="630" y="270" width="80" height="80"/>
      <rect class="mscBox_33" x="000" y="360" width="80" height="80"/>
      <rect class="mscBox_34" x="090" y="360" width="80" height="80"/>
      <rect class="mscBox_35" x="180" y="360" width="80" height="80"/>
      <rect class="mscBox_36" x="270" y="360" width="80" height="80"/>
      <rect class="mscBox_37" x="360" y="360" width="80" height="80"/>
      <rect class="mscBox_38" x="450" y="360" width="80" height="80"/>
      <rect class="mscBox_39" x="540" y="360" width="80" height="80"/>
      <rect class="mscBox_40" x="630" y="360" width="80" height="80"/>
      <rect class="mscBox_41" x="000" y="450" width="80" height="80"/>
      <rect class="mscBox_42" x="090" y="450" width="80" height="80"/>
      <rect class="mscBox_43" x="180" y="450" width="80" height="80"/>
      <rect class="mscBox_44" x="270" y="450" width="80" height="80"/>
      <rect class="mscBox_45" x="360" y="450" width="80" height="80"/>
      <rect class="mscBox_46" x="450" y="450" width="80" height="80"/>
      <rect class="mscBox_47" x="540" y="450" width="80" height="80"/>
      <rect class="mscBox_48" x="630" y="450" width="80" height="80"/>
      <rect class="mscBox_49" x="000" y="540" width="80" height="80"/>
      <rect class="mscBox_43" x="090" y="540" width="80" height="80"/>
      <rect class="mscBox_44" x="180" y="540" width="80" height="80"/>
      <rect class="mscBox_45" x="270" y="540" width="80" height="80"/>
      <rect class="mscBox_46" x="360" y="540" width="80" height="80"/>
      <rect class="mscBox_47" x="450" y="540" width="80" height="80"/>
      <rect class="mscBox_48" x="540" y="540" width="80" height="80"/>
      <rect class="mscBox_49" x="630" y="540" width="80" height="80"/>
      <rect class="mscBox_50" x="000" y="630" width="80" height="80"/>
      <rect class="mscBox_51" x="090" y="630" width="80" height="80"/>
      <rect class="mscBox_52" x="180" y="630" width="80" height="80"/>
      <rect class="mscBox_53" x="270" y="630" width="80" height="80"/>
      <rect class="mscBox_54" x="360" y="630" width="80" height="80"/>
      <rect class="mscBox_55" x="450" y="630" width="80" height="80"/>
      <rect class="mscBox_56" x="540" y="630" width="80" height="80"/>
      <rect class="mscBox_57" x="630" y="630" width="80" height="80"/>
      </g>
  </mask>
</svg>
