<svg class="clip-svg" xmlns="http://www.w3.org/2000/svg" xmlns:xlink="http://www.w3.org/1999/xlink" viewBox="0 0 552.41 310.73">

  <image width="1280" height="720" transform="translate(0) scale(0.43)" href="../assets/masking_img_opti.jpg" clip-path="url(#masking)" />

  <clipPath id="masking">
      <rect class="mscBox_1" x="397.67" y="59.02" width="35.72" height="35.72"/>
      <rect class="mscBox_2" x="397.67" y="100.71" width="35.72" height="35.72"/>
      <rect class="mscBox_3" x="397.67" y="142.4" width="35.72" height="35.72"/>
      <rect class="mscBox_4" x="397.67" y="184.09" width="35.72" height="35.72"/>
      <rect class="mscBox_5" x="397.67" y="225.78" width="35.72" height="35.72"/>
      <rect class="mscBox_6" x="397.67" y="267.47" width="35.72" height="35.72"/>
      <rect class="mscBox_7" x="355.98" y="17.33" width="35.72" height="35.72"/>
      <rect class="mscBox_8" x="397.98" y="17.33" width="35.72" height="35.72"/>
      <rect class="mscBox_9" x="355.98" y="59.33" width="35.72" height="35.72"/>
      <rect class="mscBox_10" x="355.98" y="100.71" width="35.72" height="35.72"/>
      <rect class="mscBox_11" x="355.98" y="142.4" width="35.72" height="35.72"/>
      <rect class="mscBox_12" x="355.98" y="184.09" width="35.72" height="35.72"/>
      <rect class="mscBox_13" x="355.98" y="267.47" width="35.72" height="35.72"/>
      <rect class="mscBox_14" x="314.3" y="17.33" width="35.72" height="35.72"/>
      <rect class="mscBox_15" x="314.3" y="59.02" width="35.72" height="35.72"/>
      <rect class="mscBox_16" x="314.3" y="100.71" width="35.72" height="35.72"/>
      <rect class="mscBox_17" x="314.3" y="142.4" width="35.72" height="35.72"/>
      <rect class="mscBox_18" x="314.3" y="184.09" width="35.72" height="35.72"/>
      <rect class="mscBox_19" x="314.3" y="225.78" width="35.72" height="35.72"/>
      <rect class="mscBox_20" x="356.3" y="225.78" width="35.72" height="35.72"/>
      <rect class="mscBox_21" x="314.3" y="267.47" width="35.72" height="35.72"/>
      <rect class="mscBox_22" x="272.61" y="17.33" width="35.72" height="35.72"/>
      <rect class="mscBox_23" x="230.61" y="17.33" width="35.72" height="35.72"/>
      <rect class="mscBox_24" x="272.61" y="59.02" width="35.72" height="35.72"/>
      <rect class="mscBox_25" x="272.61" y="100.71" width="35.72" height="35.72"/>
      <rect class="mscBox_26" x="272.61" y="142.4" width="35.72" height="35.72"/>
      <rect class="mscBox_27" x="272.61" y="184.09" width="35.72" height="35.72"/>
      <rect class="mscBox_28" x="272.61" y="225.78" width="35.72" height="35.72"/>
      <rect class="mscBox_29" x="272.61" y="267.47" width="35.72" height="35.72"/>
      <rect class="mscBox_30" x="230.92" y="59.02" width="35.72" height="35.72"/>
      <rect class="mscBox_31" x="230.92" y="100.71" width="35.72" height="35.72"/>
      <rect class="mscBox_32" x="230.92" y="142.4" width="35.72" height="35.72"/>
      <rect class="mscBox_33" x="230.92" y="184.09" width="35.72" height="35.72"/>
      <rect class="mscBox_34" x="230.92" y="225.78" width="35.72" height="35.72"/>
      <rect class="mscBox_35" x="230.92" y="267.47" width="35.72" height="35.72"/>
      <rect class="mscBox_36" x="189.23" y="17.33" width="35.72" height="35.72"/>
      <rect class="mscBox_37" x="147.23" y="17.33" width="35.72" height="35.72"/>
      <rect class="mscBox_38" x="189.23" y="100.71" width="35.72" height="35.72"/>
      <rect class="mscBox_39" x="189.23" y="59.71" width="35.72" height="35.72"/>
      <rect class="mscBox_40" x="189.23" y="142.4" width="35.72" height="35.72"/>
      <rect class="mscBox_41" x="189.23" y="184.09" width="35.72" height="35.72"/>
      <rect class="mscBox_42" x="189.23" y="226.09" width="35.72" height="35.72"/>
      <rect class="mscBox_43" x="189.23" y="267.47" width="35.72" height="35.72"/>
      <rect class="mscBox_44" x="147.54" y="59.02" width="35.72" height="35.72"/>
      <rect class="mscBox_45" x="147.54" y="101.02" width="35.72" height="35.72"/>
      <rect class="mscBox_46" x="147.54" y="142.4" width="35.72" height="35.72"/>
      <rect class="mscBox_47" x="147.54" y="184.4" width="35.72" height="35.72"/>
      <rect class="mscBox_48" x="147.54" y="225.78" width="35.72" height="35.72"/>
      <rect class="mscBox_49" x="147.54" y="267.47" width="35.72" height="35.72"/>
  </clipPath>
</svg>
